<?xml version="1.0" standalone="no"?>
<!-- Generator: Adobe Fireworks 10, Export SVG Extension by Aaron Beall (http://fireworks.abeall.com) . Version: 0.6.1  -->
<!DOCTYPE svg PUBLIC "-//W3C//DTD SVG 1.1//EN" "http://www.w3.org/Graphics/SVG/1.1/DTD/svg11.dtd">
<svg id="journaley-Page%201" viewBox="0 0 254 262" style="background-color:#ffffff00" version="1.1"
	xmlns="http://www.w3.org/2000/svg" xmlns:xlink="http://www.w3.org/1999/xlink" xml:space="preserve"
	x="0px" y="0px" width="254px" height="262px"
>
	<path d="M 178.0549 203.0927 C 138.6045 231.1705 126.1145 226.4826 158.1682 203.7035 C 190.5875 180.6647 197.017 134.5847 172.6613 99.7518 C 167.4392 92.2833 169.257 81.2598 176.7157 76.027 C 184.1656 70.8004 194.4163 72.6106 199.6252 80.0645 C 227.3888 119.7932 217.8246 174.7876 178.0549 203.0927 ZM 76.8022 58.4184 C 116.3767 30.9273 128.8049 35.7016 96.7881 57.9765 C 64.0731 80.7371 57.3625 126.2765 81.9408 161.3621 C 87.2063 168.8786 85.3401 180.7441 77.7635 186.0838 C 70.1781 191.4297 59.7484 189.6647 54.4695 182.1333 C 26.3077 141.9548 36.4013 86.4835 76.8022 58.4184 Z" stroke="#050505" stroke-width="2" fill="#007fff"/>
</svg>